<?xml version="1.0" encoding="UTF-8"?>
<svg width="92px" height="30px" viewBox="0 0 92 30" version="1.1" xmlns="http://www.w3.org/2000/svg" xmlns:xlink="http://www.w3.org/1999/xlink">
    <!-- Generator: Sketch 56.2 (81672) - https://sketch.com -->
    <title>logo-zing-v4</title>
    <desc>Created with Sketch.</desc>
    <g id="Header-Menu" stroke="none" stroke-width="1" fill="none" fill-rule="evenodd">
        <g id="Zing-News---HeaderMenu---6" transform="translate(-174.000000, -11.000000)" fill-rule="nonzero">
            <g id="logo-zing-v4" transform="translate(174.000000, 11.000000)">
                <g id="Group-26-Copy">
                    <path d="M19.033681,19.7671372 C19.1187911,20.5316376 19.3981215,21.2273536 19.852109,21.7939955 C20.4769217,22.5717555 21.3992163,23 22.4544197,23 C23.5009508,23 24.4250605,22.5717555 25.0504783,21.7939955 C25.6077273,21.1026303 25.9056125,20.2204507 25.9056125,19.2531195 L25.9056125,9.588509 C25.9056125,8.7705557 25.6867869,8.0234586 25.2606316,7.3668999 C25.127521,7.15909669 25.1329665,6.88416661 25.2797914,6.69128048 C25.7563674,6.05523275 26,5.33216872 26,4.54591428 C26,3.58583442 25.6470554,2.71857195 24.9911836,2.03798017 C24.3296646,1.36070329 23.4821943,1 22.5488072,1 C21.6085629,1 20.7645211,1.35842429 20.1046157,2.03798017 L20.1009854,2.03798017 C19.4449118,2.71857195 19.0941858,3.58583442 19.0941858,4.54591428 C19.0941858,5.29384011 19.3045407,5.97526063 19.7236372,6.58354601 C19.7934194,6.68320039 19.8244785,6.79652877 19.8244785,6.91503668 C19.8244785,7.03209432 19.7881756,7.15163815 19.7151665,7.25004944 C19.249078,7.92048933 19,8.7284978 19,9.588509 L19,18.7714221 C19.0280339,18.993728 19.0461853,19.2195561 19.0461853,19.4536714 C19.0461853,19.5580909 19.0407399,19.6656182 19.033681,19.7671372" id="Fill-4" fill="#FEFEFE"></path>
                    <path d="M41.1640389,7.88667273 C39.9601597,6.63463749 38.374007,6 36.4557845,6 C35.3986854,6 34.4484455,6.20041184 33.6441792,6.59261565 C33.4869148,6.665669 33.3008186,6.66459151 33.1467801,6.57494493 C32.6497843,6.29436836 32.0826243,6.15343358 31.4567926,6.15343358 C30.4043308,6.15343358 29.4827211,6.59908055 28.8532602,7.41279571 C28.29477,8.1329853 28,9.0425965 28,10.0504741 L28,20.102744 C28,21.1091131 28.29477,22.0204482 28.8548732,22.7458098 C29.4746562,23.554784 30.4043308,24 31.4525586,24 C32.5050204,24 33.4322755,23.554784 34.0579056,22.7410689 C34.6107504,22.0204482 34.9026977,21.1091131 34.9026977,20.102744 L34.9026977,13.5055311 L34.9230614,13.256417 C34.9418122,12.9305862 35.1708537,12.7325448 35.4767128,12.7448281 L35.5573612,12.7510775 C35.8472922,12.7672397 36.0678656,12.9706685 36.0821807,13.2803371 L36.0950845,13.5055311 L36.0950845,20.102744 C36.0950845,21.1073891 36.3894512,22.0204482 36.9459252,22.7410689 C37.5717569,23.554784 38.4959877,24 39.5462317,24 C40.6023227,24 41.5223194,23.554784 42.1465382,22.7458098 C42.7058349,22.0204482 43,21.1073891 43,20.102744 L43,16.6276458 C42.9526191,16.1384685 42.9223759,15.6458433 42.9223759,15.1282205 C42.9223759,14.6567139 42.9526191,14.1903793 43,13.7365434 L43,12.8829614 C43,10.8310028 42.3800153,9.1512068 41.1640389,7.88667273" id="Fill-6" fill="#FEFEFE"></path>
                    <path d="M45.9536796,21.6575057 C46.0887321,21.7667636 46.167261,21.9257582 46.167261,22.092091 C46.167261,22.1285783 46.1644564,22.1654732 46.1551796,22.1982913 C46.1195827,22.4039651 45.9661925,22.5686672 45.7586518,22.6312459 C44.4010076,23.0599199 43.4196119,24.3689757 43.4196119,25.7485598 C43.4196119,27.5131964 44.9099354,29 46.6686379,29 L50.9022957,29 C53.6020508,29 55.780581,28.3193807 57.3820099,26.9752645 C59.3135192,25.3353776 60,22.3733892 60,20.14298 L60,9.831159 C60,8.8808604 59.6899834,8.0173972 59.0928184,7.33494337 C58.423381,6.56667317 57.4359446,6.14492972 56.3112984,6.14492972 C55.6092844,6.14492972 54.9750124,6.29271319 54.4190535,6.58624174 C54.2440894,6.68143467 54.0356857,6.68367691 53.8551124,6.59887977 C53.0258125,6.20445079 52.0517519,6 50.963997,6 C48.5170878,6 46.4220485,6.97272099 44.9192122,8.816651 L44.9159761,8.8225623 C43.8485006,10.143237 43.2081879,11.6752929 43,13.3857082 L43,16.0032083 C43.1976167,17.6481911 43.735885,19.0883156 44.6361629,20.2901519 C45.0072336,20.7997501 45.4499296,21.2587961 45.9536796,21.6575057" id="Fill-8" fill="#FEFEFE"></path>
                    <path d="M14.5316759,16.3232209 L11.7966755,16.3232209 C11.5839261,16.3232209 11.3890925,16.204632 11.2938133,16.0146456 C11.1950732,15.8242525 11.2140069,15.5952111 11.336974,15.4227182 C11.336974,15.4227182 16.6772892,8.0356261 16.673421,8.0376602 C17.2385811,7.23927004 17.5262509,6.37782233 17.5262509,5.47996397 C17.5262509,4.38235551 17.0765251,3.4342545 16.2656344,2.81100166 C15.5787287,2.27928399 14.70554,2 13.7403296,2 L4.67964839,2 C3.76492779,2 2.9359177,2.33013687 2.27955019,2.95420335 C1.60139877,3.59901781 1.24532347,4.44053119 1.24532347,5.39046291 C1.24532347,6.37497457 1.63519437,7.2508645 2.3434768,7.84706361 C2.97968911,8.3901723 3.78935834,8.673728 4.67964839,8.673728 L6.74464085,8.673728 C6.95840818,8.673728 7.15324184,8.794351 7.24872458,8.9845407 C7.34888985,9.1720861 7.33056693,9.4013309 7.20841417,9.5750443 C7.20841417,9.5750443 1.79765754,17.1189667 1.79989701,17.1130677 C1.62582932,17.3638741 1.48026395,17.6150873 1.37460181,17.8579607 L1.35872195,17.8856246 C1.12072765,18.4425653 1,18.9940139 1,19.5198326 C1,20.6042193 1.45013293,21.5468282 2.26977797,22.1818789 C2.96482719,22.717258 3.83231539,23 4.78307106,23 L14.5316759,23 C15.4062897,23 16.2220665,22.698951 16.895739,22.1096679 C17.5278796,21.5584227 17.9163254,20.8310232 18,20.0137157 C17.9812699,19.8332897 17.9719049,19.6528637 17.9719049,19.463691 L17.9719049,19.0462906 C17.7200666,17.3734345 16.4293191,16.3232209 14.5316759,16.3232209" id="Fill-10" fill="#FEFEFE"></path>
                    <path d="M21.1031353,4.76052402 C21.1031353,4.275223 21.2933675,3.85873332 21.6713816,3.51809707 C22.0507323,3.17464398 22.5109428,3 23.0551317,3 C23.591747,3 24.0548533,3.17464398 24.4333129,3.51809707 C24.8119953,3.85873332 25,4.275223 25,4.76052402 C25,5.25186113 24.8119953,5.66553397 24.4333129,6.00798104 C24.0548533,6.35163533 23.591747,6.52265766 23.0551317,6.52265766 C22.5109428,6.52265766 22.0507323,6.35163533 21.6713816,6.00798104 C21.2933675,5.66553397 21.1031353,5.25186113 21.1031353,4.76052402 M21,19.0433033 L21,9.6575976 C21,9.1036865 21.1684023,8.6389081 21.5143398,8.2666831 C21.8567133,7.89103754 22.3329621,7.70150455 22.9508827,7.70150455 C23.5607841,7.70150455 24.0392605,7.89103754 24.3811884,8.2666831 C24.7246756,8.6389081 24.8977557,9.1036865 24.8977557,9.6575976 L24.8977557,19.0433033 C24.8977557,19.5966109 24.7246756,20.061188 24.3811884,20.4388455 C24.0392605,20.8144911 23.5607841,21 22.9508827,21 C22.3329621,21 21.8567133,20.8144911 21.5143398,20.4388455 C21.1684023,20.061188 21,19.5966109 21,19.0433033" id="Fill-12" fill="#49A942"></path>
                    <path d="M29,19.9615557 L29,10.1849457 C29,9.6077427 29.1596558,9.1238061 29.4804246,8.7358604 C29.8001526,8.3445612 30.2462315,8.1471302 30.8238651,8.1471302 C31.7670211,8.1471302 32.3244636,8.591874 32.495568,9.4698344 C33.2176621,8.4933681 34.3816718,8 35.9848913,8 C37.5046401,8 38.7192319,8.4432767 39.6317889,9.3327645 C40.540391,10.2268631 41,11.4303123 41,12.9397587 L41,19.9615557 C41,20.5416929 40.836181,21.0220665 40.517702,21.4154615 C40.1961005,21.8065511 39.7502298,22 39.1755104,22 C38.6062031,22 38.1597079,21.8065511 37.8364412,21.4154615 C37.5152561,21.0220665 37.3566411,20.5379203 37.3566411,19.9615557 L37.3566411,13.5452558 C37.3566411,12.7844546 37.1459869,12.1737178 36.7380007,11.7264589 C36.3212718,11.2789904 35.734063,11.0488637 34.9740845,11.0488637 C34.2476192,11.0488637 33.6747732,11.2850684 33.261583,11.7547531 C32.8475602,12.2202461 32.6400284,12.8181981 32.6400284,13.5452558 L32.6400284,19.9615557 C32.6400284,20.5379203 32.4837031,21.0220665 32.1568978,21.4154615 C31.8419574,21.8065511 31.3919235,22 30.8194938,22 C30.2462315,22 29.7976548,21.8065511 29.4804246,21.4154615 C29.1596558,21.0220665 29,20.5379203 29,19.9615557" id="Fill-14" fill="#F37A20"></path>
                    <path d="M54.361374,14.7681173 C54.361374,13.827766 54.1336216,13.0190955 53.6781167,12.3515963 C53.1570342,11.5739677 52.4200657,11.1803093 51.4747057,11.1803093 C50.5830571,11.1803093 49.8712787,11.5528118 49.3510289,12.3079004 C48.8799103,12.9752019 48.6444551,13.7506556 48.6444551,14.6267483 C48.6444551,15.566111 48.8603411,16.3629183 49.3002322,17.0191475 C49.807991,17.7825404 50.5337177,18.1659174 51.4747057,18.1659174 C52.4200657,18.1659174 53.1570342,17.8050803 53.6781167,17.0897332 C54.1336216,16.4683025 54.361374,15.6954192 54.361374,14.7681173 L54.361374,14.7681173 Z M46.8773961,27 C46.1196093,27 45.4861078,26.280303 45.4861078,25.5004995 C45.4861078,24.720696 46.2311955,24.0031739 46.8432541,24.0031739 L50.9625751,24.0031739 C51.893154,24.0031739 52.9501001,23.7578047 53.5144847,23.2771499 C54.0778285,22.7891796 54.361374,21.4122648 54.361374,20.5411151 L54.361374,19.723745 C53.5373849,20.8032905 52.2868284,21.3464244 50.6171991,21.3464244 C48.7793578,21.3464244 47.356842,20.6484765 46.3427816,19.257326 C45.4459284,18.0591492 45,16.546797 45,14.7200716 C45,12.9285402 45.5248299,11.385937 46.5707423,10.0906802 C47.6990952,8.6969593 49.1819841,8 51.0221155,8 C52.5547602,8 53.6720794,8.526921 54.361374,9.5768086 C54.5787173,8.6184649 55.1870286,8.1387987 56.1821443,8.1387987 C56.7538154,8.1387987 57.2026583,8.32505 57.5205541,8.6941912 C57.8421971,9.0599713 58,9.5194701 58,10.0610223 L58,20.0632284 C58,22.0781822 57.3508848,24.3474026 56.0572344,25.4546287 C54.8214589,26.4924555 53.1228921,27 50.9625751,27 L46.8773961,27 Z" id="Fill-16" fill="#ED2B74"></path>
                    <path d="M7.78602947,17.6514966 L15.1668387,17.6514966 C16.3891556,17.6514966 17,18.2143996 17,19.3241881 C17,19.7978505 16.8140453,20.1966254 16.4446489,20.5209292 C16.0700172,20.8392003 15.6457557,21 15.1668387,21 L5.13952584,21 C4.54354947,21 4.03845636,20.8392003 3.62215242,20.5209292 C3.20522025,20.1989137 3,19.752086 3,19.18003 C3,18.872784 3.07266472,18.5499364 3.22720814,18.1942217 C3.29694114,18.0427828 3.39096552,17.8848954 3.5071872,17.7139027 L11.7067833,6.34600717 L5.03314636,6.34600717 C4.52826266,6.34600717 4.10211652,6.20476135 3.76371251,5.91311684 C3.4227956,5.63208136 3.25526887,5.23247429 3.25526887,4.73052121 C3.25526887,4.23876112 3.42656495,3.82604877 3.7783711,3.50028892 C4.12347618,3.16932856 4.54354947,3 5.03314636,3 L14.3526587,3 C14.9620372,3 15.4761349,3.15726338 15.8805026,3.46970993 C16.2871737,3.7813244 16.4894623,4.23064833 16.4894623,4.82205016 C16.4894623,5.37912863 16.3056017,5.91311684 15.9372523,6.43628799 L7.78602947,17.6514966 Z" id="Fill-18" fill="#009CDB"></path>
                    <path d="M18.8213634,6.98015042 C18.3467129,7.76424621 18.0840798,8.6661712 18.0840798,9.6198509 L18.0840798,16.2336263 C17.2654857,15.371796 16.0708302,14.864476 14.6489116,14.864476 L13.0300183,14.864476 C14.0266825,13.4664821 17.7141167,8.3372314 17.7141167,8.3372314 C18.1214827,7.75033583 18.408509,7.13786967 18.5831234,6.49860555 C18.6538636,6.66062065 18.7319217,6.823454 18.8213634,6.98015042 L18.8213634,6.98015042 Z M18.1119287,19.7153144 C18.0283821,20.5372546 17.6405307,21.2689819 17.0093574,21.8233517 C16.3367157,22.4157706 15.5221871,22.7187306 14.6489116,22.7187306 L4.91522374,22.7187306 C3.96592287,22.7187306 3.09976207,22.4341814 2.40577638,21.8957676 C1.58738553,21.2571171 1.13794138,20.3091652 1.13794138,19.2186317 C1.13794138,18.6898325 1.25868757,18.1352581 1.49611442,17.5751604 L1.51196998,17.5473396 C1.61747044,17.3030896 1.76301636,17.050657 1.93661441,16.7982244 C1.93437837,16.8041568 7.33685568,9.2176771 7.33685568,9.2176771 C7.45902481,9.0427744 7.47711641,8.8124348 7.37710441,8.6236217 C7.28176777,8.4323539 7.08723224,8.3110472 6.87399528,8.3110472 L4.81216259,8.3110472 C3.92303155,8.3110472 3.11460124,8.0260888 2.47936245,7.47969697 C1.77216379,6.88032294 1.38288946,5.99926357 1.38288946,5.00917131 C1.38288946,4.05385502 1.73841991,3.20777618 2.41553365,2.55930666 C3.07110009,1.93170273 3.89863838,1.59969452 4.81216259,1.59969452 L13.8587762,1.59969452 C14.8225097,1.59969452 15.6943622,1.8805616 16.3802169,2.41529324 C17.1900701,3.04207892 17.6391077,3.99555413 17.6391077,5.0991797 C17.6391077,6.00212747 17.3516749,6.86866276 16.7873795,7.67137392 C16.7912418,7.66953284 11.4590981,15.0984978 11.4590981,15.0984978 C11.3363192,15.271764 11.3174145,15.5021036 11.4160035,15.6937806 C11.5111369,15.8846393 11.7056724,16.0039004 11.9182995,16.0039004 L14.6489116,16.0039004 C16.5436511,16.0039004 17.8324236,17.060067 18.0840798,18.7424055 C18.1119287,18.9414468 18.1328661,19.1470342 18.1328661,19.3605995 C18.1328661,19.481088 18.1241252,19.5991217 18.1119287,19.7153144 L18.1119287,19.7153144 Z M22.6992675,22.8619258 C21.6355221,22.8619258 20.705939,22.4390909 20.0761887,21.6711557 C19.6186135,21.1116718 19.3372789,20.4249487 19.2514962,19.6699011 C19.2584076,19.5696644 19.2640994,19.4634955 19.2640994,19.3605995 C19.2640994,19.1294416 19.2458045,18.9062617 19.2175491,18.6869686 L19.2175491,9.6198509 C19.2175491,8.7707036 19.4685955,7.97310658 19.9383673,7.31113581 C20.0119533,7.2137631 20.0485431,7.09572937 20.0485431,6.98015042 C20.0485431,6.86313952 20.0172385,6.75124273 19.9469049,6.6528472 C19.5244965,6.05224578 19.3124792,5.37943308 19.3124792,4.64095518 C19.3124792,3.69300321 19.6657736,2.83690071 20.327235,2.16470171 L20.330894,2.16470171 C20.9960144,1.49393466 21.8467262,1.13983348 22.7941976,1.13983348 C23.7349609,1.13983348 24.5893317,1.49598031 25.255875,2.16470171 C25.9171332,2.83690071 26.2728669,3.69300321 26.2728669,4.64095518 C26.2728669,5.41727752 26.027309,6.13141225 25.5467636,6.75922075 C25.3987783,6.94987487 25.3934932,7.22112742 25.5276556,7.42630563 C25.9571787,8.0747751 26.1777336,8.8124348 26.1777336,9.6198509 L26.1777336,19.1623765 C26.1777336,20.1176928 25.8774943,20.9885239 25.3158416,21.6711557 C24.6854814,22.4390909 23.7540689,22.8619258 22.6992675,22.8619258 L22.6992675,22.8619258 Z M42.7134569,19.1623765 C42.7134569,20.1160563 42.4168766,20.9827961 41.8529878,21.6711557 C41.223644,22.4390909 40.2960938,22.8619258 39.2311286,22.8619258 C38.1722618,22.8619258 37.2404427,22.4390909 36.609676,21.6668599 C36.048633,20.9827961 35.7518495,20.1160563 35.7518495,19.1623765 L35.7518495,12.8996338 L35.7388398,12.6860685 C35.7244072,12.3921093 35.5020228,12.1990004 35.2097113,12.183658 L35.1284007,12.1777257 C34.8200304,12.1660655 34.5889051,12.3540603 34.5702037,12.6633618 L34.5496728,12.8996338 L34.5496728,19.1623765 C34.5496728,20.1176928 34.2553285,20.9827961 33.6979446,21.6668599 C33.0671779,22.4390909 32.1323096,22.8619258 31.0710035,22.8619258 C30.0143726,22.8619258 29.0770651,22.4390909 28.4519901,21.6711557 C27.8874915,20.9827961 27.5903014,20.1176928 27.5903014,19.1623765 L27.5903014,9.6198509 C27.5903014,8.6633073 27.8874915,7.79963588 28.4505672,7.11618583 C29.0851961,6.34375021 30.0143726,5.92050623 31.0752723,5.92050623 C31.7064455,5.92050623 32.2782621,6.05449599 32.7793385,6.32063442 C32.9346416,6.40593783 33.1222658,6.40696065 33.2806181,6.33740871 C34.091691,5.96530586 35.0497327,5.77506086 36.115511,5.77506086 C38.0494828,5.77506086 39.6486584,6.37750336 40.8624219,7.5660232 C42.0883819,8.7662032 42.7134569,10.3607836 42.7134569,12.3086469 L42.7134569,13.1191316 C42.6656869,13.5499444 42.6349922,13.9924175 42.6349922,14.4402092 C42.6349922,14.9315732 42.6656869,15.3990031 42.7134569,15.8635691 L42.7134569,19.1623765 Z M59.8624652,19.9683607 C59.8624652,22.2067056 59.2156396,25.1792326 57.3957059,26.8249541 C55.886785,28.1738526 53.8340998,28.8566889 51.2902987,28.8566889 L47.3012023,28.8566889 C45.644093,28.8566889 44.2398595,27.3645953 44.2398595,25.5938849 C44.2398595,24.2093922 45.1645639,22.8956789 46.4437824,22.4654797 C46.6393343,22.4026784 46.7838639,22.2373903 46.8174045,22.0309847 C46.8261453,21.9980498 46.8287879,21.9608191 46.8287879,21.9244066 C46.8287879,21.7574819 46.7547953,21.5979216 46.6275443,21.488275 C46.1528939,21.0881469 45.7357707,20.6274676 45.3861352,20.1160563 C44.5378627,18.9099439 44.0306881,17.4646956 43.8444869,15.8138599 C43.7957005,15.3691367 43.7674451,14.9141852 43.7674451,14.4402092 C43.7674451,14.0091918 43.7957005,13.5931075 43.8444869,13.187047 C44.0406486,11.4705461 44.643973,9.9330392 45.6497847,8.6076657 L45.6528339,8.6017333 C47.0688574,6.75124273 49.0428747,5.77506086 51.3484358,5.77506086 C52.3733555,5.77506086 53.2911485,5.98023907 54.072543,6.37586684 C54.2426854,6.46117025 54.4390504,6.45892004 54.6039076,6.36338841 C55.1277509,6.06861094 55.7253836,5.92050623 56.386845,5.92050623 C57.446525,5.92050623 58.3769211,6.34375021 59.0076878,7.11475387 C59.570357,7.79963588 59.8624652,8.6661712 59.8624652,9.6198509 L59.8624652,19.9683607 Z M59.884419,6.39161831 C59.0324876,5.35161231 57.7910785,4.77699058 56.386845,4.77699058 C55.636755,4.77699058 54.9448021,4.93839199 54.316678,5.24728441 C53.4358813,4.84531513 52.4424694,4.63256803 51.3484358,4.63256803 C48.6749443,4.63256803 46.39276,5.76299155 44.7574013,7.90764594 L44.7486604,7.91460113 C44.2603904,8.5548881 43.8597326,9.2395655 43.5442476,9.9622919 C43.2033531,8.7238584 42.5695372,7.64437141 41.6551999,6.74571949 C40.219052,5.3464982 38.3527712,4.63256803 36.115511,4.63256803 C34.98814,4.63256803 33.9652531,4.83038192 33.0627058,5.20043913 C32.4601945,4.92591355 31.7922282,4.77699058 31.0752723,4.77699058 C29.6696158,4.77699058 28.4237347,5.35161231 27.5754622,6.39161831 C27.2835573,6.7410145 27.0453173,7.13786967 26.8702963,7.55722692 C26.8028085,7.41341807 26.7379634,7.26940465 26.6562463,7.12907339 C27.1396376,6.37750336 27.4061329,5.53367473 27.4061329,4.64095518 C27.4061329,3.37920124 26.9410365,2.24509557 26.0588169,1.35749013 C25.1745645,0.47070295 24.0423148,0 22.7941976,0 C21.5409985,0 20.4101718,0.47070295 19.5277489,1.35749013 L19.5244965,1.36301337 C18.98805,1.89692676 18.6085329,2.52882655 18.3967189,3.22332308 C18.1062369,2.55419255 17.6645173,1.96831978 17.0750157,1.51029982 C16.184665,0.82173566 15.072743,0.45863365 13.8587762,0.45863365 L4.81216259,0.45863365 C3.60165154,0.45863365 2.50172285,0.89967474 1.63393583,1.73204776 C0.72732302,2.60124239 0.24942016,3.73248416 0.24942016,5.00917131 C0.24942016,6.34109087 0.77956506,7.52470117 1.74431493,8.3529829 C2.58465963,9.0726409 3.64921822,9.4523126 4.81216259,9.4523126 L5.76837486,9.4523126 C4.76927127,10.8546024 1.00926741,16.1364582 1.00926741,16.1364582 C0.79318457,16.4543514 0.6102358,16.7691762 0.46936524,17.0850238 C0.46814559,17.0936155 0.45737194,17.1245048 0.45737194,17.1245048 C0.1577425,17.8288204 0,18.5333406 0,19.2186317 C0,20.6698124 0.6102358,21.9438402 1.71301036,22.7974879 C2.6021414,23.4925982 3.71223391,23.8618371 4.91522374,23.8618371 L14.6489116,23.8618371 C15.8016922,23.8618371 16.8731622,23.4557766 17.747454,22.6835455 C18.1214827,22.3660614 18.4274137,21.9931403 18.6664667,21.5862614 C18.8197371,21.8730609 18.9947581,22.1451317 19.2033197,22.3967461 C20.0509824,23.4353201 21.2944242,24.0046232 22.6992675,24.0046232 C24.1026879,24.0046232 25.3436904,23.4324562 26.1929793,22.3967461 C26.4779728,22.0530777 26.708285,21.6711557 26.8859486,21.2601856 C27.0658482,21.6668599 27.2896556,22.0530777 27.5754622,22.3967461 C28.4237347,23.4324562 29.6649405,24.0046232 31.0710035,24.0046232 C32.4805221,24.0046232 33.7196952,23.4324562 34.5702037,22.3930639 C34.8070207,22.1070827 34.98814,21.794099 35.1544201,21.459636 C35.3129757,21.794099 35.5020228,22.1070827 35.7359939,22.3930639 C36.5856893,23.4324562 37.8291312,24.0046232 39.2311286,24.0046232 C40.6361752,24.0046232 41.8806334,23.4324562 42.7295157,22.3967461 C43.3486957,21.6361752 43.7194719,20.7152257 43.8198904,19.7007903 C44.0087342,20.0706429 44.2174991,20.4284263 44.4543161,20.7706627 C44.6992642,21.1249685 44.9842577,21.4532945 45.2851068,21.7707786 C43.9920656,22.5526242 43.1088295,24.0367398 43.1088295,25.5938849 C43.1088295,27.9827893 45.0293851,30 47.3012023,30 L51.2902987,30 C54.1233621,30 56.4275003,29.2181544 58.1472188,27.6777836 C60.2478773,25.7788112 61,22.4509557 61,19.9683607 L61,9.6198509 C61,8.3943049 60.6127584,7.28045113 59.884419,6.39161831 L59.884419,6.39161831 Z" id="Fill-20" fill="#B8B8B8"></path>
                </g>
                <g id="Group-2-Copy" transform="translate(62.000000, 9.000000)" fill="#545454">
                    <path d="M8.30600057,1.99099099 L10.9247322,9.25225225 L13.7449047,1.67477477 C13.9660958,1.06576272 14.1833338,0.634385653 14.3966253,0.380630631 C14.6099167,0.126875608 14.9337988,0 15.3682814,0 C15.7790648,0 16.1286205,0.13663527 16.416959,0.40990991 C16.7052974,0.68318455 16.8494644,0.999397604 16.8494644,1.35855856 C16.8494644,1.4990998 16.8237908,1.66306213 16.7724429,1.85045045 C16.7210949,2.03783877 16.6618482,2.21351269 16.5947009,2.37747748 C16.5275536,2.54144226 16.4505329,2.72882777 16.3636364,2.93963964 L13.2590767,10.5522523 C13.1721802,10.770872 13.0596114,11.0480464 12.921367,11.3837838 C12.7831225,11.7195212 12.629081,12.0064553 12.4592378,12.2445946 C12.2893947,12.4827339 12.0800562,12.6681675 11.8312162,12.8009009 C11.5823762,12.9336343 11.2802179,13 10.9247322,13 C10.4665506,13 10.1011958,12.8965476 9.82865674,12.6896396 C9.5561177,12.4827317 9.35467882,12.2563075 9.22433406,12.0103604 C9.0939893,11.7644132 8.8747764,11.278382 8.56668879,10.5522523 L5.48582804,3.02162162 C5.4147309,2.8342333 5.34165993,2.64684778 5.26661295,2.45945946 C5.19156597,2.27207114 5.12836945,2.08078176 5.07702152,1.88558559 C5.02567358,1.69038941 5,1.52252323 5,1.38198198 C5,1.16336227 5.06714629,0.94669777 5.20144089,0.731981982 C5.3357355,0.517266194 5.52137525,0.341592275 5.75836572,0.204954955 C5.99535619,0.0683176351 6.25209202,0 6.52858091,0 C7.06575931,0 7.43506393,0.15225073 7.63650583,0.456756757 C7.83794773,0.761262784 8.06111041,1.27266908 8.30600057,1.99099099 Z M21.503934,1.76846847 L21.503934,2.15495495 C22.0727112,1.4132095 22.6948018,0.868620356 23.3702247,0.521171171 C24.0456475,0.173721986 24.8217797,0 25.6986444,0 C26.5518101,0 27.314118,0.183481649 27.9855911,0.55045045 C28.6570641,0.917419252 29.1586864,1.43663328 29.490473,2.10810811 C29.7037645,2.49850045 29.8420068,2.92011786 29.9052043,3.37297297 C29.9684017,3.82582809 30,4.40360009 30,5.10630631 L30,11.0558559 C30,11.6960993 29.8518832,12.1801785 29.5556451,12.5081081 C29.259407,12.8360377 28.8743033,13 28.4003223,13 C27.9184417,13 27.5274133,12.8321338 27.2272253,12.4963964 C26.9270374,12.160659 26.7769457,11.6804836 26.7769457,11.0558559 L26.7769457,5.72702703 C26.7769457,4.6729677 26.6288289,3.86681961 26.3325908,3.30855856 C26.0363527,2.75029751 25.4458603,2.47117117 24.5610958,2.47117117 C23.984419,2.47117117 23.459098,2.64098929 22.9851171,2.98063063 C22.5111361,3.32027197 22.1635553,3.78678382 21.9423642,4.38018018 C21.7843706,4.85645884 21.7053749,5.74654003 21.7053749,7.05045045 L21.7053749,11.0558559 C21.7053749,11.7039071 21.5533083,12.1899383 21.2491705,12.513964 C20.9450328,12.8379896 20.5520295,13 20.0701488,13 C19.6040676,13 19.2209387,12.8321338 18.9207508,12.4963964 C18.6205628,12.160659 18.4704711,11.6804836 18.4704711,11.0558559 L18.4704711,1.81531532 C18.4704711,1.20630326 18.6047637,0.751503005 18.8733529,0.450900901 C19.1419421,0.150298797 19.5092719,0 19.9753531,0 C20.2597417,0 20.5164775,0.0663657027 20.7455683,0.199099099 C20.9746591,0.331832495 21.158324,0.530929604 21.2965684,0.796396396 C21.4348128,1.06186319 21.503934,1.38588397 21.503934,1.76846847 Z" id="vn"></path>
                    <path d="M1.51495016,13 C1.10298797,13 0.747509801,12.867111 0.448504984,12.6013289 C0.149500166,12.3355468 0,11.9634575 0,11.4850498 C0,11.0797322 0.142855715,10.7308985 0.428571428,10.4385382 C0.714287143,10.1461779 1.06644309,10 1.48504984,10 C1.90365658,10 2.26079587,10.1445168 2.5564784,10.4335548 C2.85216095,10.7225928 3,11.0730876 3,11.4850498 C3,11.956813 2.85216095,12.3272412 2.5564784,12.5963455 C2.26079587,12.8654499 1.91362325,13 1.51495016,13 Z" id="."></path>
                </g>
            </g>
        </g>
    </g>
</svg>